<?xml version="1.0" encoding="iso-8859-1"?>
<!-- Generator: Adobe Illustrator 19.0.0, SVG Export Plug-In . SVG Version: 6.00 Build 0)  -->
<svg version="1.1" id="Layer_1" xmlns="http://www.w3.org/2000/svg" xmlns:xlink="http://www.w3.org/1999/xlink" x="0px" y="0px"
	 viewBox="0 0 496 496" style="enable-background:new 0 0 496 496;" xml:space="preserve">
<path style="fill:#FFC114;" d="M432,154.4C432,68.8,349.6,0,248,0S64,68.8,64,154.4c0,22.4,5.6,44,16,64l0,0L152,320l0,0v44.8
	c0,43.2,44.8,77.6,96,77.6s96-35.2,96-77.6V320l0,0l71.2-102.4l0,0C425.6,198.4,432,176.8,432,154.4z"/>
<path style="fill:#FCA12A;" d="M249.6,442.4c51.2,0,94.4-35.2,94.4-77.6V320l0,0l71.2-102.4l0,0c10.4-19.2,16-40.8,16-63.2
	C432,68.8,350.4,0,248.8,0"/>
<path style="fill:#34B515;" d="M184,408v64c0,12.8,9.6,24,23.2,24h82.4c12.8,0,23.2-10.4,23.2-24v-64H184z"/>
<path style="fill:#239B02;" d="M288.8,496c12.8,0,23.2-10.4,23.2-24v-64H184"/>
<circle style="fill:#FFC114;" cx="248" cy="451.2" r="21.6"/>
<path style="fill:#EA8C1C;" d="M263.2,436c8,8,8,22.4,0,30.4s-22.4,8-30.4,0"/>
<ellipse transform="matrix(-0.7889 0.6145 -0.6145 -0.7889 700.6707 641.3953)" style="fill:#FFEB97;" cx="240.184" cy="441.029" rx="9.601" ry="5.6"/>
<path style="fill:#239B02;" d="M248,99.2V96l0,0V99.2c-32,75.2-109.6,92-104,180.8c3.2,52,48,81.6,104,111.2l0,0l0,0l0,0
	c56-29.6,100.8-60,104-111.2C357.6,191.2,280,174.4,248,99.2z"/>
<path style="fill:#34B515;" d="M248,392L248,392L248,392L248,392c56-30.4,100.8-60,104-112c5.6-89.6-72-106.4-104-180.8V96l0,0l0,0"
	/>
<g>
	<path style="fill:#FFC114;" d="M252,356c0,2.4-1.6,4-4,4l0,0c-2.4,0-4-1.6-4-4V164c0-2.4,1.6-4,4-4l0,0c2.4,0,4,1.6,4,4V356z"/>
	<path style="fill:#FFC114;" d="M240,274.4l-33.6-32c-1.6-1.6-4.8-1.6-6.4,0s0,4,1.6,5.6l39.2,37.6v-11.2H240z"/>
	<path style="fill:#FFC114;" d="M256,274.4l33.6-32c1.6-1.6,4.8-1.6,6.4,0s0,4-1.6,5.6L256,285.6V274.4z"/>
</g>
<g>
	<path style="fill:#FFEB97;" d="M252.8,68c0,2.4-1.6,4-4,4l0,0c-2.4,0-4-1.6-4-4V36c0-2.4,1.6-4,4-4l0,0c2.4,0,4,1.6,4,4V68z"/>
	<path style="fill:#FFEB97;" d="M288.8,89.6c-1.6,1.6-4,1.6-5.6,0l0,0c-1.6-1.6-1.6-4,0-5.6l22.4-25.6c1.6-1.6,4-1.6,5.6,0l0,0
		c1.6,1.6,1.6,4,0,5.6L288.8,89.6z"/>
	<path style="fill:#FFEB97;" d="M207.2,89.6c1.6,1.6,4,1.6,5.6,0l0,0c1.6-1.6,1.6-4,0-5.6l-22.4-25.6c-1.6-1.6-4-1.6-5.6,0l0,0
		c-1.6,1.6-1.6,4,0,5.6L207.2,89.6z"/>
	<path style="fill:#FFEB97;" d="M100.8,95.2C84,120,79.2,145.6,90.4,152.8c10.4,7.2,32.8-7.2,49.6-32s21.6-50.4,10.4-57.6
		C140,56,117.6,70.4,100.8,95.2z"/>
</g>
<g>
</g>
<g>
</g>
<g>
</g>
<g>
</g>
<g>
</g>
<g>
</g>
<g>
</g>
<g>
</g>
<g>
</g>
<g>
</g>
<g>
</g>
<g>
</g>
<g>
</g>
<g>
</g>
<g>
</g>
</svg>
