<?xml version="1.0" encoding="iso-8859-1"?>
<!-- Generator: Adobe Illustrator 19.0.0, SVG Export Plug-In . SVG Version: 6.00 Build 0)  -->
<svg version="1.1" id="Layer_1" xmlns="http://www.w3.org/2000/svg" xmlns:xlink="http://www.w3.org/1999/xlink" x="0px" y="0px"
	 viewBox="0 0 492.8 492.8" style="enable-background:new 0 0 492.8 492.8;" xml:space="preserve">
<path style="fill:#027F89;" d="M0,229.6c0.8,0,1.6,0.8,2.4,0.8h88C96,102.4,164,0,246.4,0C116,0,8.8,101.6,0,229.6z"/>
<path style="fill:#A9EAE8;" d="M246.4,0c82.4,0,150.4,102.4,156,230.4h88c0.8,0,1.6,0,2.4,0C484,101.6,376.8,0,246.4,0z"/>
<path style="fill:#7DD1D1;" d="M90.4,262.4h-88c-0.8,0-1.6,0.8-2.4,0.8c8.8,128,116,229.6,246.4,229.6
	C164,492.8,96,390.4,90.4,262.4z"/>
<path style="fill:#00A1AD;" d="M490.4,262.4h-88c-5.6,128-73.6,230.4-156,230.4c130.4,0,237.6-101.6,246.4-230.4
	C492,262.4,491.2,262.4,490.4,262.4z"/>
<path style="fill:#82C60A;" d="M246.4,13.6v0.8l0,0V13.6c-24,64.8-94.4,79.2-89.6,156.8c2.4,44.8,41.6,70.4,89.6,96v-4l0,0v3.2
	c48-25.6,87.2-52,89.6-96C340.8,92.8,270.4,77.6,246.4,13.6z"/>
<path style="fill:#5EA304;" d="M246.4,262.4L246.4,262.4L246.4,262.4v3.2c48-25.6,87.2-52,89.6-96c4.8-76.8-65.6-92-89.6-156v0.8
	l0,0l0,0"/>
<g>
	<polygon style="fill:#74B208;" points="246.4,124.8 205.6,100 246.4,140 287.2,100 	"/>
	<polygon style="fill:#74B208;" points="246.4,209.6 205.6,184 246.4,224.8 287.2,184 	"/>
	<polygon style="fill:#74B208;" points="246.4,166.4 200.8,137.6 246.4,184 292,137.6 	"/>
</g>
<path style="fill:#A2D80E;" d="M246.4,479.2v-0.8l0,0V479.2c24-64.8,94.4-79.2,89.6-156.8c-2.4-44-41.6-69.6-89.6-95.2v3.2l0,0v-3.2
	c-48,25.6-87.2,52-89.6,96C152,400,222.4,415.2,246.4,479.2z"/>
<path style="fill:#ACE530;" d="M246.4,230.4L246.4,230.4L246.4,230.4v-3.2c-48,25.6-87.2,52-89.6,96c-4.8,76.8,65.6,92,89.6,156
	v-0.8l0,0l0,0"/>
<g>
	<polygon style="fill:#86D300;" points="246.4,368 287.2,392.8 246.4,352.8 205.6,392.8 	"/>
	<polygon style="fill:#86D300;" points="246.4,283.2 287.2,308.8 246.4,268 205.6,308.8 	"/>
	<polygon style="fill:#86D300;" points="246.4,326.4 292,355.2 246.4,308.8 200.8,355.2 	"/>
</g>
<g>
</g>
<g>
</g>
<g>
</g>
<g>
</g>
<g>
</g>
<g>
</g>
<g>
</g>
<g>
</g>
<g>
</g>
<g>
</g>
<g>
</g>
<g>
</g>
<g>
</g>
<g>
</g>
<g>
</g>
</svg>
